<?xml version="1.0" standalone="no"?>
<!DOCTYPE svg PUBLIC "-//W3C//DTD SVG 20010904//EN"
 "http://www.w3.org/TR/2001/REC-SVG-20010904/DTD/svg10.dtd">
<svg version="1.0" xmlns="http://www.w3.org/2000/svg"
 width="800.000000pt" height="800.000000pt" viewBox="0 0 800.000000 800.000000"
 preserveAspectRatio="xMidYMid meet">

<g transform="translate(0.000000,800.000000) scale(0.100000,-0.100000)"
fill="#000000" stroke="none">
<path d="M2837 7507 c-25 -38 -85 -161 -122 -252 -48 -115 -75 -225 -75 -307
0 -38 -2 -68 -4 -68 -3 0 -43 16 -91 35 -123 49 -305 107 -343 108 -18 1 -40
-6 -48 -15 -15 -15 -15 -20 5 -60 11 -25 21 -47 21 -51 0 -3 -22 -3 -49 0 -43
5 -56 2 -98 -23 -31 -18 -62 -29 -88 -29 -38 0 -40 -1 -41 -33 -1 -44 -20 -62
-126 -118 -121 -64 -188 -127 -229 -212 -54 -115 -50 -168 12 -136 36 18 73
18 89 -1 20 -24 -30 -69 -135 -122 -162 -82 -239 -138 -306 -222 -75 -94 -137
-262 -130 -348 2 -21 29 -15 74 18 38 28 47 30 94 25 66 -8 225 -44 235 -54 4
-4 -19 -27 -52 -52 -132 -95 -256 -254 -385 -491 -27 -51 -71 -115 -97 -143
-27 -28 -48 -56 -48 -63 0 -27 297 -126 445 -149 61 -9 116 -18 123 -20 8 -2
-13 -35 -53 -86 -85 -106 -161 -258 -179 -357 -15 -84 -23 -93 -103 -118 -29
-9 -61 -25 -70 -36 -16 -16 -16 -21 -3 -44 18 -30 143 -108 220 -137 41 -15
83 -20 165 -22 61 -1 109 -6 108 -11 -6 -30 -95 -204 -118 -231 -33 -39 -84
-67 -142 -77 -22 -3 -49 -13 -60 -20 -17 -13 -17 -15 -1 -31 9 -10 63 -28 120
-41 122 -27 250 -30 327 -7 29 8 55 14 57 11 2 -2 -7 -47 -21 -101 -18 -72
-27 -143 -34 -270 -10 -197 -26 -255 -92 -330 -22 -25 -39 -53 -37 -63 9 -49
197 -102 388 -110 133 -5 152 -2 231 31 10 4 22 2 28 -6 7 -7 57 -96 112 -198
100 -183 236 -416 291 -497 16 -24 37 -43 46 -43 9 0 34 19 54 42 l37 43 1
-75 c0 -144 46 -257 138 -341 72 -65 108 -64 95 3 -6 31 22 78 47 78 28 0 41
-51 50 -195 16 -239 55 -346 177 -475 40 -43 96 -93 124 -111 44 -28 52 -30
65 -18 11 11 12 22 4 49 -20 71 -14 91 66 203 41 59 79 109 83 112 5 2 18 -35
30 -83 40 -161 125 -311 314 -555 32 -42 69 -102 82 -134 13 -32 30 -59 38
-61 18 -4 210 206 282 308 64 91 117 196 140 274 15 50 16 84 10 239 -8 191
-1 217 30 111 10 -35 47 -100 101 -180 47 -69 89 -135 93 -147 5 -13 4 -44 -2
-75 -15 -72 -3 -83 57 -48 58 34 165 139 210 207 56 85 86 193 96 346 11 161
18 203 37 210 22 9 51 -25 58 -68 10 -57 37 -52 109 19 91 90 135 197 136 335
0 44 3 57 15 57 8 0 15 -6 15 -13 0 -20 38 -57 58 -57 25 0 219 314 371 603
45 84 78 137 88 137 8 0 40 -7 71 -16 44 -13 83 -15 186 -11 141 6 224 23 324
68 74 33 78 50 26 100 -70 67 -90 134 -98 336 -6 131 -22 236 -50 326 -8 26
-12 47 -8 47 4 0 29 -7 56 -15 72 -22 216 -19 328 6 51 12 101 26 111 31 27
14 21 47 -10 54 -156 35 -166 43 -248 204 -37 73 -65 133 -63 135 2 2 23 -1
48 -5 123 -24 236 -6 348 55 104 58 144 93 140 124 -3 22 -12 29 -67 48 -87
30 -100 45 -118 138 -21 115 -109 278 -201 377 -51 54 -63 45 103 72 109 18
393 108 427 136 21 16 21 17 -38 82 -32 36 -81 108 -109 159 -115 215 -259
395 -386 481 -27 18 -49 36 -49 39 0 9 210 52 260 53 35 1 53 -5 81 -26 50
-39 79 -37 79 3 0 59 -62 221 -115 299 -63 94 -137 154 -285 230 -63 32 -133
74 -155 94 -39 35 -39 36 -21 51 25 19 49 19 88 -1 27 -14 32 -14 45 -1 13 13
13 21 3 53 -47 143 -106 214 -230 279 -115 59 -163 100 -156 130 7 29 -10 43
-54 43 -19 0 -55 12 -80 26 -26 15 -61 26 -83 26 -35 0 -37 2 -27 20 19 35 8
73 -23 84 -33 12 -115 -11 -310 -85 -73 -27 -139 -52 -148 -55 -13 -5 -15 2
-11 48 5 69 -18 190 -58 298 -39 106 -139 300 -162 314 -21 13 -50 -3 -150
-79 -86 -65 -177 -110 -275 -136 -65 -17 -123 -22 -343 -28 -244 -7 -269 -9
-315 -30 -72 -32 -233 -32 -295 0 -40 21 -61 23 -314 30 -252 7 -277 9 -361
34 -105 31 -179 70 -290 154 -86 66 -114 74 -138 38z m130 -102 c173 -140 345
-184 713 -185 101 0 170 -4 165 -9 -6 -5 -53 -18 -105 -29 -197 -43 -471 -138
-693 -240 -97 -45 -247 -133 -267 -157 -20 -24 -28 -18 -54 34 -34 67 -41 131
-22 219 32 147 153 422 187 422 5 0 39 -25 76 -55z m2393 -60 c79 -158 111
-261 118 -372 4 -80 2 -97 -18 -137 -12 -25 -26 -46 -31 -46 -4 0 -39 20 -76
44 -194 124 -507 249 -846 336 -81 20 -150 40 -153 42 -2 3 98 8 223 11 199 5
240 8 324 30 118 31 213 78 304 151 39 30 77 54 85 53 8 -1 40 -52 70 -112z
m-1330 -181 c0 -21 -619 -662 -661 -685 -12 -6 -34 3 -80 33 -101 66 -276 151
-376 183 -51 17 -93 33 -93 37 0 10 89 73 160 111 102 56 280 130 465 192 239
80 387 114 573 134 6 0 12 -2 12 -5z m420 -39 c230 -56 549 -169 725 -257 96
-48 227 -137 222 -151 -1 -5 -45 -24 -97 -43 -115 -41 -249 -107 -353 -175
-42 -28 -82 -49 -87 -47 -32 10 -666 665 -679 700 -6 18 151 2 269 -27z m-227
-112 c46 -54 128 -143 181 -197 l96 -99 0 -163 c0 -89 3 -169 6 -178 9 -24 43
-20 49 7 3 12 6 78 8 147 l2 125 85 -85 c47 -47 150 -147 229 -222 l143 -137
-36 -50 c-68 -92 -80 -132 -76 -251 7 -216 9 -211 -135 -281 -173 -85 -226
-152 -325 -409 -106 -275 -105 -330 6 -615 21 -54 27 -88 28 -152 1 -99 -12
-121 -99 -169 -78 -43 -259 -115 -306 -121 -61 -9 -237 64 -336 138 -89 67
-92 109 -21 376 37 142 41 170 42 278 1 117 -1 123 -42 239 -48 137 -148 304
-215 362 -23 19 -76 51 -117 71 -41 19 -90 49 -108 66 l-34 32 7 135 c7 157
-2 200 -60 282 l-38 52 86 80 c47 45 154 146 237 225 l150 143 0 -140 c0 -112
3 -142 15 -152 12 -10 18 -10 30 0 12 10 15 44 15 182 l0 170 68 71 c167 177
193 206 243 265 28 34 57 62 63 62 8 0 10 -133 8 -462 -1 -255 0 -473 3 -485
5 -23 38 -32 49 -14 4 5 6 226 7 490 0 265 2 481 4 481 1 0 41 -44 88 -97z
m-1799 -116 c161 -59 267 -115 270 -142 1 -5 -37 -13 -84 -17 -87 -6 -159 -30
-207 -68 -14 -11 -29 -20 -34 -20 -4 0 -19 35 -33 78 -15 44 -47 110 -72 148
-25 38 -48 72 -50 77 -12 18 49 2 210 -56z m3546 44 c0 -4 -11 -25 -25 -46
-37 -54 -91 -165 -100 -202 -8 -38 -19 -40 -60 -13 -48 31 -166 54 -246 46
-58 -5 -69 -4 -69 9 0 9 11 20 25 25 13 5 42 21 65 36 37 24 368 152 398 154
6 0 12 -4 12 -9z m-3830 -116 c8 -9 30 -15 57 -15 44 0 44 -1 68 -52 13 -29
29 -78 35 -109 12 -53 11 -57 -20 -118 -48 -97 -70 -196 -70 -323 l0 -110 -44
-56 c-254 -331 -422 -755 -461 -1164 -5 -49 -11 -68 -23 -73 -36 -14 -261 -18
-324 -6 -131 25 -358 96 -358 112 0 4 22 43 49 86 26 43 74 122 105 175 104
178 193 284 305 367 79 58 128 84 241 127 66 25 86 37 88 53 5 32 -20 35 -87
12 -104 -36 -150 -36 -315 -2 -82 17 -167 31 -188 31 -49 0 -49 12 -2 110 54
113 151 204 290 270 135 65 185 99 225 155 34 47 122 105 159 105 12 0 38 -11
58 -25 32 -22 38 -23 52 -10 18 19 7 41 -40 73 -44 30 -93 28 -149 -5 -29 -17
-60 -26 -87 -26 -51 0 -104 20 -104 40 0 53 91 140 214 202 57 29 100 59 122
85 37 43 135 104 170 105 12 1 27 -6 34 -14z m4003 -19 c42 -21 76 -46 90 -66
15 -22 57 -52 127 -90 107 -59 178 -118 206 -173 16 -29 16 -32 -6 -49 -38
-31 -111 -28 -183 8 -62 32 -95 33 -141 5 -45 -28 -62 -57 -45 -77 16 -19 23
-18 57 11 17 14 40 25 52 25 36 0 135 -58 154 -90 31 -53 78 -88 201 -151 194
-99 266 -163 324 -290 51 -111 52 -105 -31 -113 -40 -4 -113 -16 -163 -28
-122 -29 -221 -29 -308 1 -70 24 -97 23 -97 -3 0 -22 33 -41 118 -70 121 -40
206 -98 322 -215 84 -85 118 -129 170 -218 36 -62 93 -157 127 -213 70 -113
72 -103 -34 -139 -197 -66 -384 -97 -480 -79 -101 18 -118 17 -118 -12 0 -21
8 -27 46 -40 60 -19 114 -58 165 -117 99 -117 166 -246 184 -356 16 -93 32
-114 104 -147 l60 -28 -34 -21 c-101 -62 -158 -83 -242 -88 -117 -8 -184 9
-253 60 -30 23 -64 49 -75 57 -19 14 -20 20 -11 65 5 28 15 124 21 215 38 532
-74 1032 -321 1443 -34 56 -74 117 -88 136 -26 34 -26 36 -26 215 0 208 -14
267 -85 374 -24 35 -40 71 -40 88 0 16 17 63 38 104 35 71 39 75 68 72 19 -2
36 3 44 13 18 21 27 19 103 -19z m-3238 -171 c61 -20 133 -49 160 -62 66 -33
234 -133 240 -143 5 -7 -157 -172 -175 -178 -6 -2 -61 21 -122 52 -123 61
-204 82 -282 71 -63 -8 -94 -24 -139 -74 -46 -51 -60 -105 -55 -206 5 -91 39
-177 104 -266 l36 -49 -56 -73 c-87 -111 -95 -120 -111 -114 -39 15 -155 218
-193 337 -36 112 -45 182 -40 317 7 188 47 283 153 364 75 58 121 70 255 66
101 -4 128 -8 225 -42z m2814 9 c107 -36 204 -157 232 -289 17 -82 15 -255 -5
-342 -32 -146 -118 -325 -201 -418 l-35 -40 -28 35 c-15 19 -49 61 -77 93 -71
84 -71 85 -60 101 101 137 128 205 129 332 1 82 -2 96 -29 149 -24 47 -40 63
-83 88 -45 25 -65 30 -120 30 -88 -1 -136 -14 -259 -75 -57 -27 -109 -48 -117
-46 -20 4 -146 127 -146 141 0 26 277 175 401 217 156 52 291 60 398 24z
m-182 -341 c104 -54 114 -249 21 -402 -57 -94 -44 -99 -253 114 -210 216 -202
192 -79 251 81 40 182 65 237 60 20 -2 54 -13 74 -23z m-2599 -28 c74 -35 122
-69 122 -87 0 -4 -74 -83 -164 -175 -158 -161 -165 -167 -190 -156 -36 17 -84
87 -102 151 -23 79 -16 207 13 248 37 51 76 66 166 60 63 -3 92 -11 155 -41z
m2298 -277 c219 -222 200 -194 164 -263 -37 -70 -39 -129 -10 -270 25 -121 25
-152 0 -192 -22 -38 -82 -78 -126 -88 l-32 -6 14 60 c24 104 -9 194 -103 282
-47 45 -164 109 -197 109 -22 0 -20 15 6 51 20 27 22 39 18 127 -7 157 -3 207
19 250 21 42 68 102 80 102 3 0 78 -73 167 -162z m-2074 84 c44 -76 49 -112
36 -229 -10 -89 -9 -107 5 -145 21 -55 21 -68 0 -68 -34 0 -139 -58 -182 -101
-78 -78 -115 -202 -87 -291 7 -24 5 -28 -12 -28 -30 0 -114 61 -136 99 -19 33
-19 35 -1 145 27 162 30 247 11 285 -9 16 -16 37 -16 46 0 22 320 346 338 343
8 -2 28 -27 44 -56z m-911 -143 c28 -101 96 -239 163 -331 31 -42 56 -80 56
-84 0 -5 -25 -47 -55 -95 -65 -103 -153 -284 -188 -389 -68 -200 -96 -451 -78
-699 62 -862 449 -1532 1296 -2245 373 -314 420 -354 493 -426 40 -39 89 -96
108 -125 46 -73 64 -72 106 7 47 89 161 204 433 437 364 312 417 360 589 535
408 415 643 793 780 1253 61 205 90 393 102 643 10 224 -17 435 -82 627 -32
96 -129 296 -183 381 -23 34 -41 65 -41 69 0 3 24 38 54 77 63 82 124 193 156
284 13 34 26 62 31 62 20 0 127 -181 199 -340 91 -199 143 -371 182 -600 18
-107 21 -165 21 -400 0 -204 -4 -303 -17 -384 -9 -60 -16 -115 -16 -123 0 -7
17 -22 39 -32 66 -34 99 -78 175 -234 59 -122 82 -160 120 -195 26 -24 45 -47
41 -50 -4 -4 -61 -7 -128 -7 -117 0 -124 1 -176 30 -31 17 -67 48 -85 72 -24
33 -37 42 -56 40 -37 -3 -36 -30 4 -94 40 -65 80 -175 96 -264 6 -32 14 -127
19 -211 9 -164 29 -246 77 -317 13 -19 24 -39 24 -43 0 -4 -16 -14 -36 -23
-109 -45 -367 -62 -454 -30 -25 10 -59 19 -76 22 -31 5 -31 5 -111 -149 -123
-235 -324 -568 -344 -568 -7 0 -8 41 -3 119 6 105 5 122 -12 150 -20 34 -95
77 -119 67 -29 -11 -17 -45 22 -61 48 -20 53 -29 53 -96 0 -44 -4 -60 -21 -75
-37 -34 -50 -73 -59 -184 -10 -127 -22 -170 -59 -225 -39 -57 -74 -59 -135 -6
-26 23 -51 41 -56 41 -16 0 -59 -77 -70 -125 -6 -26 -14 -106 -19 -178 -10
-149 -32 -229 -85 -311 -32 -49 -133 -155 -138 -145 -2 2 -16 30 -31 61 -16
31 -60 100 -97 153 -80 111 -105 171 -115 273 -11 108 -47 108 -96 -1 -22 -49
-24 -64 -24 -262 0 -248 -5 -264 -114 -426 -70 -104 -218 -279 -235 -279 -6 0
-24 21 -41 48 -16 26 -71 101 -120 167 -207 276 -271 452 -263 724 3 102 2
106 -19 109 -26 4 -31 -9 -42 -110 -11 -97 -22 -120 -135 -286 -53 -78 -96
-149 -96 -157 0 -28 -25 -15 -72 38 -112 129 -143 211 -158 420 -10 156 -17
189 -53 250 -17 29 -27 65 -32 119 l-7 76 40 21 c39 20 57 44 46 62 -15 25
-98 -11 -126 -55 -16 -26 -18 -42 -13 -101 6 -66 5 -72 -25 -117 -39 -59 -55
-65 -85 -32 -45 49 -65 106 -76 220 -14 140 -24 178 -56 208 -19 18 -27 37
-31 74 -5 61 5 81 55 107 43 23 54 50 24 60 -27 8 -83 -17 -109 -50 -29 -37
-35 -77 -24 -168 11 -82 7 -120 -12 -114 -20 7 -262 420 -360 615 -26 51 -53
95 -61 98 -8 3 -44 -4 -80 -16 -59 -20 -82 -22 -208 -18 -111 4 -158 10 -217
28 -41 12 -79 26 -84 30 -4 5 5 28 22 52 55 79 82 203 82 378 0 137 52 327
116 423 52 79 2 122 -52 45 -18 -26 -52 -55 -85 -73 -52 -29 -59 -30 -181 -30
-113 0 -167 9 -130 23 45 15 87 73 152 207 74 155 106 198 181 247 43 27 49
35 45 57 -21 102 -36 307 -36 488 0 409 65 714 222 1043 78 161 239 412 255
396 2 -2 13 -36 24 -77z m494 -209 c14 -22 6 -140 -15 -238 -23 -107 -22 -151
6 -204 30 -58 103 -105 201 -129 26 -7 61 -21 76 -32 54 -37 142 -57 251 -57
121 0 218 24 319 78 67 36 69 37 83 17 23 -32 36 -85 41 -178 6 -99 -3 -157
-53 -329 -83 -291 -54 -365 188 -482 62 -30 125 -58 140 -61 15 -4 31 -12 36
-18 5 -7 14 -109 21 -227 6 -118 14 -265 17 -326 4 -61 3 -114 -2 -117 -5 -2
-56 2 -114 11 -70 10 -193 15 -370 17 -167 1 -280 6 -305 13 -88 25 -142 125
-154 286 -14 170 -29 192 -332 521 -209 226 -361 355 -497 422 -30 14 -56 33
-60 41 -18 49 65 326 147 490 78 155 225 372 325 480 32 34 41 38 51 22z
m2849 -128 c196 -252 317 -492 370 -734 26 -116 22 -128 -43 -145 -30 -7 -82
-27 -116 -44 -165 -81 -424 -346 -583 -597 -66 -102 -80 -135 -154 -352 -62
-183 -86 -232 -121 -253 -16 -8 -115 -14 -337 -18 -183 -4 -349 -12 -397 -20
-45 -7 -84 -11 -87 -8 -2 2 -9 114 -15 249 -6 135 -14 283 -17 330 l-6 85 83
29 c46 17 132 53 190 82 132 65 174 109 185 193 10 79 -9 176 -57 287 -48 114
-63 188 -55 269 7 65 51 212 70 233 10 10 37 0 137 -52 171 -88 241 -110 338
-104 63 4 88 10 132 35 30 17 91 41 136 53 98 26 161 65 190 117 35 62 37 100
13 227 -26 134 -24 224 4 255 11 12 24 17 31 13 8 -4 56 -62 109 -130z m-2254
-23 c85 -19 144 -69 220 -187 38 -59 70 -115 70 -124 0 -18 -44 -55 -97 -82
-69 -35 -183 -58 -285 -58 -89 0 -106 3 -157 29 -77 38 -101 77 -101 160 0 77
19 125 68 176 79 82 174 111 282 86z m1665 -34 c167 -81 238 -236 159 -347
-17 -24 -55 -58 -85 -75 -72 -45 -144 -45 -262 -3 -113 41 -271 132 -275 158
-5 31 54 139 106 194 47 50 101 84 157 99 50 13 146 1 200 -26z m-3317 -977
c0 -101 5 -219 11 -263 5 -44 12 -109 15 -145 l6 -65 -65 -49 c-36 -26 -82
-52 -102 -57 -60 -14 -175 -10 -233 7 -56 16 -180 82 -180 95 0 4 25 19 55 33
61 28 95 71 95 122 0 33 33 141 58 189 63 123 206 281 273 302 71 23 67 33 67
-169z m4306 96 c10 -25 7 -249 -4 -389 -14 -167 -43 -316 -75 -382 -50 -101
-162 -174 -297 -193 -82 -12 -88 -15 -88 -40 0 -57 169 -27 291 51 33 22 63
38 66 36 4 -5 -70 -196 -89 -228 -19 -31 -162 -143 -227 -178 -40 -21 -83 -33
-146 -42 -101 -14 -127 -28 -104 -55 11 -14 25 -16 86 -10 92 7 167 34 245 86
34 22 65 39 69 38 11 -4 -125 -228 -208 -346 -212 -297 -439 -529 -908 -927
-239 -203 -410 -366 -461 -440 -20 -30 -42 -55 -48 -55 -6 0 -31 24 -54 54
-51 63 -119 125 -377 341 -488 409 -742 666 -952 960 -100 141 -271 430 -261
440 2 3 26 -12 54 -32 27 -19 78 -49 114 -67 59 -28 74 -31 160 -31 88 0 95 1
95 20 0 17 -9 21 -70 28 -111 14 -172 37 -254 95 -131 93 -165 132 -206 239
-20 53 -34 97 -31 100 2 3 34 -13 71 -35 125 -76 304 -92 278 -25 -3 7 -19 13
-37 13 -53 0 -158 30 -205 57 -114 67 -151 128 -182 307 -33 184 -52 570 -31
603 6 9 31 -1 91 -37 151 -90 248 -178 513 -468 220 -242 227 -253 239 -387 9
-109 35 -205 71 -263 31 -51 91 -85 181 -103 l80 -16 2 -129 c3 -223 46 -314
177 -378 113 -56 223 -77 434 -83 257 -8 458 20 639 88 130 48 218 246 200
445 l-7 71 58 8 c129 15 147 39 240 313 85 248 133 337 286 528 181 225 339
356 503 415 62 23 71 23 79 3z m-2028 -1289 c114 -14 128 -14 255 5 145 22
204 23 413 13 l137 -6 -3 -131 c-3 -126 -4 -134 -37 -199 -53 -104 -73 -117
-280 -167 -144 -35 -238 -43 -446 -38 -211 6 -288 19 -405 69 -63 27 -123 93
-141 156 -15 52 -20 274 -6 307 7 18 17 19 200 13 106 -4 246 -13 313 -22z"/>
</g>
</svg>
